<?xml version="1.0" encoding="iso-8859-1"?>
<!-- Generator: Adobe Illustrator 19.0.0, SVG Export Plug-In . SVG Version: 6.00 Build 0)  -->
<svg version="1.1" id="Layer_1" xmlns="http://www.w3.org/2000/svg" xmlns:xlink="http://www.w3.org/1999/xlink" x="0px" y="0px"
	 viewBox="0 0 512 512" style="enable-background:new 0 0 512 512;" xml:space="preserve">
<g>
	<g>
		<path d="M249.778,0c-66.72,0-129.885,25.53-177.855,71.88c-3.985,3.85-4.185,10.17-0.445,14.26l164.14,179.78L73.958,427.59
			c-1.96,1.96-3.04,4.62-3,7.39c0.04,2.77,1.2,5.4,3.215,7.3C121.837,487.24,184.202,512,249.778,512c141.16,0,256-114.84,256-256
			C505.778,114.84,390.937,0,249.778,0z M249.778,491.52c-56.795,0-110.975-20.19-153.72-57.07l160.96-160.97
			c3.87-3.87,4.015-10.1,0.32-14.14L93.452,79.84c43.145-38.35,98.27-59.36,156.325-59.36c129.865,0,235.52,105.65,235.52,235.52
			C485.298,385.87,379.643,491.52,249.778,491.52z"/>
	</g>
</g>
<g>
	<g>
		<path d="M314.558,92.16c-22.585,0-40.96,18.37-40.96,40.96c0,22.59,18.375,40.96,40.96,40.96c22.585,0,40.96-18.37,40.96-40.96
			C355.518,110.53,337.142,92.16,314.558,92.16z M314.558,153.6c-11.296,0-20.48-9.19-20.48-20.48c0-11.29,9.184-20.48,20.48-20.48
			c11.295,0,20.48,9.19,20.48,20.48C335.038,144.41,325.853,153.6,314.558,153.6z"/>
	</g>
</g>
<g>
	<g>
		<rect x="6.222" y="256.666" width="61.44" height="20.48"/>
	</g>
</g>
<g>
	<g>
		<rect x="98.382" y="256.666" width="61.44" height="20.48"/>
	</g>
</g>
<g>
</g>
<g>
</g>
<g>
</g>
<g>
</g>
<g>
</g>
<g>
</g>
<g>
</g>
<g>
</g>
<g>
</g>
<g>
</g>
<g>
</g>
<g>
</g>
<g>
</g>
<g>
</g>
<g>
</g>
</svg>
